<svg xmlns="http://www.w3.org/2000/svg" width="200" height="200" viewBox="0 0 200 200" fill="none">
<rect width="200" height="200" fill="#FEFFFE"/>
<path d="M 179.18,86.82 C 177.34,83.51 177.96,82.29 179.8,78.71 C 182.28,73.83 183.22,72.27 182.19,63.64 C 181.95,61.51 182.12,61.41 183.53,56.81 C 187.68,43.06 189.25,29.72 186.61,17.77 C 184.63,8.96 181.42,5.15 177.14,5 C 165.69,4.61 153.08,19.09 144.77,28.92 C 135.19,40.31 130.55,44.56 125.71,43.85 C 121.26,43.19 113.91,41.31 100.12,41.21 H 98.71 C 87.96,41.16 81.69,42.82 76.18,43.7 C 71.78,44.41 67.87,40.88 57.07,28.72 C 47.14,17.33 36.24,5.12 23.82,5.02 C 15.21,4.92 11.91,15.77 11.81,28.72 C 11.71,37.03 13.94,47.98 17.19,59.89 C 17.91,62.17 17.24,63.29 16.94,66.81 C 16.33,74.11 18.92,77.89 20.76,81.78 C 21.78,84.11 21.11,85.9 19.43,89.12 C 14.38,98.95 12.16,108.11 12.72,119.82 C 14.6,150.92 33.13,177.14 77.95,188.79 C 81.91,189.81 85.91,195.12 100.02,195 C 112.03,194.89 116.43,190.63 120.78,189.5 C 157.38,180.94 179.95,161.01 186.41,128.28 C 189.1,114.68 186.11,100.09 179.18,86.82 Z" fill="#B4511A"/>
<path d="M 177.24,7.63 C 167.81,6.12 152.98,22.88 146.97,29.78 C 139.89,38.09 131.48,46.81 130.16,51.71 C 128.99,56.36 120.88,51.1 120.01,50.08 C 118.89,48.71 117.06,50.84 117.11,56.2 C 117.16,60.45 118.78,67.75 118.78,67.75 C 118.78,67.75 120.67,72.25 122.14,73.62 C 125.99,77.25 127.72,84.81 127.16,88.91 C 126.39,94.42 122.04,96.09 121.02,95.07 C 120.1,94.15 121.22,91.08 120.1,84.29 C 118.37,73.63 116.85,72.12 115.68,72.32 C 113.35,72.73 111.78,83.88 109.84,87.31 C 108.42,89.99 106.85,89.63 107.11,86.05 C 107.72,77.13 111.32,70.08 113.05,67.75 C 114.62,65.52 111.12,60.97 111.63,55.42 C 111.99,51.79 114.11,45.23 114.11,45.23 C 108.02,44.01 102.26,43.65 97.71,43.8 C 91.9,43.96 87.8,44.31 84.16,45.18 L 85.13,46.91 C 87.02,49.83 87.22,55.08 85.75,59.84 C 84.73,63.32 85.29,65.45 86.71,67.07 C 88.94,69.7 92.04,79.73 91.63,85.74 C 91.33,89.73 89.25,88.92 88.38,86.49 C 86.91,82.24 86.05,72.06 83.52,72.31 C 81.29,72.52 80.12,82.7 79.05,92.06 C 78.59,96.26 76.16,95.95 74.43,93.72 C 71.9,90.39 71.95,81.93 76.15,76.72 C 78.99,73.19 81.99,68.79 81.84,61.94 C 81.79,58.72 82.61,54.12 81.14,50.33 C 80.37,48.1 78.09,49.72 77.22,50.64 C 75.8,52.21 70.29,52.92 69.73,50.13 C 68.61,44.27 60.81,37.12 54.74,30.12 C 46.43,20.29 33.22,7.08 23.34,8.1 C 14.11,9.06 13.91,28.35 15.03,36.06 C 16.92,49.32 19.81,56.98 21.38,59.9 C 22.85,62.82 21.83,64.29 20.91,67.92 C 19.49,73.98 23.45,78.99 24.47,82.94 C 25.34,86.37 22.29,89.64 18.89,98.31 C 14.29,110.17 14.65,118.22 15.21,124.08 C 19.21,122.15 20.99,115.83 25.94,110.22 C 31.35,104.16 39.1,103.7 42.09,103.9 C 44.12,104.06 45.19,102.08 42.04,101.67 C 38.39,101.16 40.92,96.41 45.02,93.29 C 48.32,90.66 52.28,88.99 55.42,89.14 C 59.92,89.35 63.07,92.22 64.75,92.12 C 65.92,92.02 64.35,86.41 65.16,81.91 C 66.13,76.25 70.13,76.05 70.44,80.25 C 70.85,85.05 72.27,92.88 74.15,95.8 C 76.13,98.97 79.88,97.75 83.28,105.01 C 85.41,109.71 85.66,116.22 87.28,117.59 C 88.7,118.71 89.62,115.39 89.98,110.43 C 90.23,106.8 87.75,100.05 89.92,94.44 C 90.79,91.96 93.27,93.73 94.54,92.01 C 96.42,89.28 96.01,78.48 99.76,78.43 C 103.11,78.38 102.91,88.01 104.43,90.74 C 105.35,92.41 106.22,88.06 108.35,89.48 C 109.92,90.5 110.28,93.98 109.36,97.76 C 108.7,100.59 107.78,107.74 108.9,109.92 C 110.07,112.3 113.12,114.92 115.05,123.99 C 116.22,129.65 120.22,132.97 122.75,132.11 C 124.93,131.35 123.05,127.25 125.73,127.86 C 131.69,129.28 138.25,133.88 142.25,139.09 C 146.31,144.29 147.88,150.25 150.11,152.68 C 152.14,154.91 161.01,154.71 165.81,156.08 C 168.04,156.74 170.22,157.15 172.15,156.49 C 178.22,147.98 183.12,137.08 185.05,124.33 C 187.03,111.73 183.73,98.83 177.32,87.07 C 175.85,84.15 176.72,81.22 178.95,77.02 C 181.18,72.72 180.92,69.09 179.09,63.73 C 178.17,60.76 181.47,57.02 183.4,43.76 C 185.43,30.21 185.69,9.01 177.24,7.63 Z" fill="#E67D31"/>
<path d="M 17.29,132.92 C 25.85,130.84 27.32,120.23 31.92,113.92 C 35.12,109.57 38.92,108.25 40.19,108.25 C 43.79,108.25 45.01,106.12 44.25,105.1 C 43.28,103.73 38.23,106.21 38.33,105.25 C 38.54,103.12 45.92,102.97 49.17,102.72 C 51.4,102.56 51.15,104.94 50.13,108.11 C 48.81,112.46 53.6,121.78 60.98,124.11 C 65.88,125.68 69.93,124.71 72.62,125.02 C 75.72,125.38 74.3,127.71 74.56,129.74 C 74.81,132.02 73.95,133.84 75.93,133.18 C 78.06,132.42 83.11,127.11 83.42,124.93 C 83.73,122.75 83.73,121.18 86.11,117.81 C 87.08,116.39 86.72,117.96 86.62,118.42 C 86.01,120.09 85.24,117.11 84.02,110.01 C 82.95,103.65 79.25,98.29 76.21,96.11 C 73.88,94.54 76.11,93.78 77.03,94.14 C 78.45,94.7 77.28,92.72 75.6,92.06 C 73.42,91.15 71.74,90.13 70.72,87.21 C 69.91,84.78 66.21,88.31 65.39,89.68 C 64.02,92.11 64.18,92.98 62.05,92.11 C 59.06,90.84 56.17,88.97 53.13,89.12 C 47.82,89.38 43.22,93.43 40.89,97.17 C 39.52,99.6 40.34,101.01 42.01,100.61 C 44.7,99.85 47.8,95.15 53.91,95.71 C 59.11,96.22 64.01,97.29 66.95,98.21 C 72.71,100.09 77.81,102.91 79.94,110.78 C 81.82,118.03 82.02,122.13 81.11,125.16 C 80.04,128.89 73.82,134.15 66.13,134.81 C 63.9,135.01 64.92,132.93 63.9,132.93 C 62.12,132.93 53.71,143.44 52.44,148.75 C 51.22,153.71 48.48,152.84 44.03,153.81 C 38.22,155.08 33.02,156.35 28.57,158.93 C 23.31,152.13 19.21,143.62 17.29,132.92 Z" fill="#DD7A3E"/>
<path d="M 183.73,132.62 C 176.29,131.65 174.31,123.19 170.71,116.14 C 167.62,110.03 163.32,108.71 161.69,108.71 C 158.09,108.71 154.09,105.23 154.6,104.21 C 155.42,102.54 157.75,104.01 162.15,104.72 C 170.41,106.14 175.1,113.44 178.95,119.15 C 180.83,122.12 183.06,123.64 184.74,123.9 C 185.25,123.95 184.84,130.65 183.73,132.62 Z" fill="#C25319"/>
<path d="M 27.55,17.84 C 33.06,18.14 39.22,19.92 43.02,23.24 C 47.97,27.69 53.73,36.05 56.93,40.65 C 60.43,45.71 60.33,50.01 60.02,53.9 C 56.12,53.75 52.82,53.34 48.82,52.63 C 51.05,54.61 54.35,56.63 54.71,59.9 C 52.13,57.62 49.75,56.71 46.55,56.5 C 47.67,57.92 48.84,59.29 49.15,60.91 C 46.1,59.19 42.8,58.12 39.05,58.78 C 40.17,60.05 42.81,61.88 43.12,63.8 C 38.67,61.42 36.09,59.29 32.34,59.29 C 35.03,55.24 38.78,52.42 42.78,50.74 C 39.69,48.71 36.19,47.64 32.19,47.95 C 35.29,44.98 39.89,43.56 43.89,42.7 C 37.62,39.48 31.36,36.66 26.51,33.49 C 30.11,32.12 34.31,31.41 37.91,31.61 C 35.12,27.01 31.17,22.31 27.55,17.84 Z" fill="#E0CEC3"/>
<path d="M 171.48,17.63 C 165.97,18.75 158.73,21.03 155.53,25.08 C 147.94,34.76 139.79,42.01 139.38,54.27 C 143.08,53.4 146.88,52.79 150.38,53.05 C 147.9,55.08 146.12,57.06 145.05,60.13 C 147.94,57.5 151.14,56.13 155.04,55.83 C 153.47,57.7 151.74,59.02 150.72,61.1 C 154.72,59.22 158.62,58.05 166.21,60.03 C 163.11,62.8 158.71,65.28 155.62,68.81 C 158.1,67.14 161.04,66.02 163.98,66.43 C 162.71,68.25 161.79,70.18 161.49,71.9 C 163.32,70.03 165.05,68.51 166.72,67.75 C 165.2,72.91 166.32,77.97 169.01,80.35 C 173.41,77.13 177.31,71.72 176.39,67.12 C 175.73,63.79 175.12,63.03 177.1,58.83 C 182.25,47.23 186.1,24.31 179.89,12.05 C 177.21,7.04 171.7,10.11 167.65,13.19 C 165.82,14.61 162.17,18.71 163.09,18.3 C 165.32,17.38 168.21,17.23 171.48,17.63 Z" fill="#D17A52"/>
<path d="M 23.11,150.15 C 33.58,165.77 49.28,178.93 78.82,186.18 C 83.82,187.5 86.1,190.77 98.21,190.62 C 108.04,190.52 112.79,188.04 116.64,186.27 C 127.01,183.29 153.79,178.84 172.26,157.35 C 173.73,155.58 172.31,155.12 170.13,155.27 C 166.88,155.47 164.8,153.9 158.49,153.8 C 153.18,153.7 150.09,152.48 148.62,152.12 C 145.07,151.21 143.75,154.91 143.44,157.84 C 142.32,166.45 132.94,176.28 123.82,176.13 C 121.08,176.08 122.05,177.25 120.02,178.72 C 117.08,180.85 114.14,189.1 98.57,189.91 C 86.72,190.52 81.11,181.05 79.84,178.72 C 78.67,176.39 75.78,176.08 73.25,175.62 C 64.44,173.85 58.28,167.25 56.6,157.78 C 55.73,152.88 53.25,153.74 50.72,153.49 C 46.72,153.08 38.31,154.1 30.2,158.15 C 27.21,155.97 24.63,152.63 23.11,150.15 Z" fill="#DAC7BB"/>
<path d="M 27.41,144.13 C 24.21,145.65 21.78,145.19 22.14,146.51 C 22.65,148.49 28.11,149.91 30.79,148.94 C 34.79,147.47 37.48,145.19 41.78,145.04 C 45.73,144.89 48.42,144.23 48.32,143.62 C 48.11,142.4 45.99,142.04 43.3,141.74 C 38.35,141.18 35.2,140.31 31.71,141.23 C 29.58,141.84 28.92,143.26 27.41,144.13 Z" fill="#C25319"/>
<path d="M 33.12,126.14 C 32.1,127.21 36.75,135.07 44.09,137.25 C 48.79,138.67 51.22,137.7 51.42,136.89 C 51.73,135.62 48.99,135.37 45.89,134.5 C 38.81,132.32 34.61,124.71 33.12,126.14 Z" fill="#C25319"/>
<path d="M 147.99,136.83 C 147.02,137.9 149.61,138.41 154.91,137.14 C 161.18,135.52 166.48,129.21 167.05,127.08 C 167.61,125.05 166.09,125.41 164.72,126.83 C 161.12,130.46 156.72,134.86 147.99,136.83 Z" fill="#C25319"/>
<path d="M 150.78,143.92 C 150.01,145.24 154.11,145.14 157.91,146.06 C 162.11,147.12 165.2,149.7 169.2,149.45 C 173.1,149.19 177.05,146.11 177.61,145.35 C 178.48,144.08 175.49,145.75 172.29,144.43 C 169.71,143.36 168.94,140.93 163.28,141.34 C 158.13,141.74 151.8,142.25 150.78,143.92 Z" fill="#C25319"/>
<path d="M 152.15,102.12 C 150.73,101.26 146.78,97.21 137.96,97.21 C 127.41,97.21 120.38,104.82 118.7,111.82 C 117.18,118.62 117.18,123.98 118.55,124.13 C 119.72,124.23 120.38,121.9 122.31,122.92 C 125.05,124.39 127.43,125.41 132.84,125.1 C 142.87,124.54 148.28,118.12 150.71,109.41 C 151.32,107.13 152.99,102.98 152.15,102.12 Z" fill="#4F3915"/>
<path d="M 47.35,101.82 C 48.72,100.8 53.12,97.21 62.24,97.21 C 72.79,97.21 78.7,104.82 80.38,111.82 C 81.9,118.62 81.75,122.77 80.23,122.92 C 78.71,123.07 78.15,121.15 76.22,122.32 C 73.74,123.79 70.64,124.91 65.54,124.71 C 56.11,124.3 50.1,117.25 48.73,109.15 C 48.22,105.88 46.44,102.42 47.35,101.82 Z" fill="#4F3915"/>
<path d="M 121.74,116.85 C 120.62,108.24 127.28,99.03 138.38,98.83 C 144.75,98.73 148.55,102.01 148.7,104.34 C 149.72,113.11 144.21,121.67 134.93,122.08 C 128.22,122.33 122.1,119.6 121.74,116.85 Z" fill="#86C167" stroke="#559938" stroke-width="1.0011" stroke-miterlimit="10"/>
<path d="M 77.65,116.85 C 78.77,108.24 73.11,98.83 62.01,98.83 C 55.64,98.83 52.05,101.46 51.23,104.34 C 48.7,113.21 54.92,122.03 64.19,122.59 C 70.85,122.98 77.35,119.6 77.65,116.85 Z" fill="#86C167" stroke="#559938" stroke-width="1.0011" stroke-miterlimit="10"/>
<path d="M 130.82,105.02 C 133.92,101.07 134.28,99.14 135.75,99.75 C 139.45,101.32 139.91,107.38 139.45,111.43 C 138.99,115.22 136.41,119.22 134.89,119.12 C 131.74,118.87 128.75,107.97 130.82,105.02 Z" fill="#00472B"/>
<path d="M 60.02,104.31 C 62.55,101.04 62.75,99.37 64.32,99.83 C 68.32,101.05 69.19,106.71 68.53,110.71 C 67.87,114.71 65.49,118.81 63.97,118.51 C 59.82,117.65 58.65,106.6 60.02,104.31 Z" fill="#00472B"/>
<path d="M 60.07,108.1 C 62.31,108.1 63.28,106.78 63.28,105.46 C 63.28,103.89 62.26,102.72 60.63,102.72 C 59.11,102.72 57.89,104.04 57.89,105.41 C 57.89,106.73 58.71,108.1 60.07,108.1 Z" fill="#FEFFFE"/>
<path d="M 130.42,108.91 C 132.65,108.91 133.31,107.59 133.31,106.27 C 133.31,104.7 132.04,103.73 130.72,103.73 C 129.15,103.73 128.13,104.8 128.13,106.22 C 128.13,107.64 129.05,108.91 130.42,108.91 Z" fill="#FEFFFE"/>
<path d="M 135.39,83.09 C 136.91,79.82 140.31,79.97 142.74,80.89 C 145.78,82.11 147.25,84.14 145.73,86.22 C 143.6,89.24 139.05,91.47 136.92,92.08 C 134.28,92.83 133.62,87.22 135.39,83.09 Z" fill="#C25319"/>
<path d="M 63.78,83.74 C 62.1,80.21 59.72,80.21 57.09,81.23 C 54.2,82.35 52.02,84.83 53.14,86.25 C 55.12,88.88 57.91,90.05 59.43,91.01 C 61.61,92.38 66.11,93.14 65.14,90.51 C 64.48,88.63 64.74,85.8 63.78,83.74 Z" fill="#C25319"/>
<path d="M 149.25,92.82 C 143.94,90.24 139.15,90.24 136.31,91.1 C 134.08,91.81 134.9,89.08 135.21,86.4 C 135.92,80.94 133.13,76.24 131.25,77.31 C 127.25,79.59 128.22,87.21 126.24,90.48 C 124.82,93.06 126.65,93.06 128.12,93.27 C 131.06,93.68 134.21,93.32 138.46,94.64 C 144.12,96.46 147.01,97.88 149.7,99.05 C 153.95,100.92 156.74,101.99 158.52,100.01 C 160.75,97.52 153.75,95.04 149.25,92.82 Z" fill="#E5AC83"/>
<path d="M 129.81,130.29 C 136.89,128.11 153.99,122.8 159.09,116.05 C 161.83,112.36 161.83,108.72 160.31,108.72 C 158.79,108.72 153.79,105.39 153.03,106.21 C 152.26,107.02 151.19,114.63 147.09,118.98 C 141.78,124.64 135.12,125.51 128.31,124.75 C 125.37,124.44 123.8,125.21 123.85,127.23 C 123.85,129.31 124.72,131.94 129.81,130.29 Z" fill="#E5AC83"/>
<path d="M 63.01,128.82 C 56.95,126.95 43.68,122.29 39.23,116.63 C 36.9,113.51 37.36,109.41 39.79,109.11 C 42.12,108.81 44.81,107.49 44.81,106.22 C 44.81,104.95 46.03,105.16 47.1,105.72 C 48.42,106.48 47.81,109.11 48.73,112.19 C 50.2,117.15 54.15,122.11 60.91,123.88 C 64.81,124.9 68.01,125.21 66.74,127.24 C 65.72,128.91 65.82,130.03 66.03,131.1 C 66.54,133.63 64.92,130.03 63.01,128.82 Z" fill="#E5AC83"/>
<path d="M 112.03,130.99 C 109.75,131.81 112.23,137.81 110.06,140.24 C 107.78,142.87 107.58,148.08 109.7,147.42 C 113.05,146.3 116.75,146.91 117.72,149.09 C 118.48,150.86 117.01,153.79 120.91,153.79 C 125.71,153.79 131.92,152.93 133.44,151.11 C 134.61,149.69 134.71,145.44 132.13,143.72 C 127.23,140.45 123.93,139.64 121.14,138.02 C 117.24,135.79 117.19,129.73 112.03,130.99 Z" fill="#E59155"/>
<path d="M 76.99,151.01 C 74.91,150.25 67.01,150.15 66.6,151.37 C 65.88,153.45 67.81,153.6 68.93,154.46 C 70.05,155.33 68.42,157.05 66.54,157.15 C 64.01,157.3 64.73,159.93 66.3,160.34 C 67.87,160.75 68.73,163.03 69.85,163.03 C 70.67,163.03 69.45,164.75 70.67,166.17 C 71.74,167.44 76.19,165.67 78.72,165.31 C 82.92,164.65 85.15,163.79 85.61,161.61 C 86.02,159.73 81.72,157.81 80.25,155.03 C 79.13,152.83 78.93,151.62 76.99,151.01 Z" fill="#E59A5B"/>
<path d="M 122.81,158.72 C 124.69,159.08 125.71,158.32 125.92,157.25 C 126.17,155.98 124.44,156.18 123.22,156.23 C 121.75,156.33 120.93,156.74 120.83,157.45 C 120.73,158.11 121.39,158.47 122.81,158.72 Z" fill="#E59A5B"/>
<path d="M 131.02,160.8 C 133.71,160.65 134.83,159.23 134.83,158.06 C 134.83,156.74 132.7,157.05 131.02,157.25 C 129.04,157.51 128.28,158.37 128.28,159.28 C 128.28,160.24 129.15,160.9 131.02,160.8 Z" fill="#E59A5B"/>
<path d="M 124.85,167.21 C 127.28,167.62 128.15,166.6 128.05,165.63 C 127.89,164.21 125.91,163.7 123.63,163.7 C 121.8,163.7 120.78,164.21 120.78,165.02 C 120.78,165.78 122.41,166.75 124.85,167.21 Z" fill="#E59A5B"/>
<path d="M 75.12,175.31 C 78.11,176.69 83.21,176.89 88.21,174.41 C 94.12,171.54 98.07,169.71 99.24,166.13 C 100.11,169.06 103.31,171.13 108.01,173.11 C 113.92,175.64 116.91,176.91 122.72,175.19 C 120.19,176.61 119.78,178.18 118.51,178.18 C 114.21,178.18 107.75,172.42 99.91,172.93 C 93.15,173.39 88.85,178.75 81.01,177.47 C 78.26,176.96 77.29,175.99 75.12,175.31 Z" fill="#C9663A"/>
<path d="M 85.19,145.65 C 85.19,148.92 88.39,150.85 90.92,151.31 C 93.45,151.77 93.45,155.41 94.87,157.69 C 96.29,159.97 97.71,160.33 99.23,160.33 C 101.21,160.33 104.15,157.35 105.02,154.23 C 105.88,151.11 108.11,151.11 110.64,150.04 C 113.17,148.97 114.74,147.05 114.64,145.68 C 114.49,143.96 109.75,143.25 106.15,143.71 C 103.21,144.12 102.75,144.42 99.81,144.12 C 96.87,143.81 95.19,143.35 92.25,143.56 C 88.65,143.76 85.19,144.63 85.19,145.65 Z" fill="#C25A3D"/>
<path d="M 96.24,156.84 C 95.22,154.91 96.04,152.03 95.02,150.31 C 93.95,148.49 91.32,148.08 90.05,147.72 C 88.48,147.26 87.01,147.01 86.19,145.34 C 85.78,144.48 85.22,145.29 85.63,146.71 C 86.24,148.94 88.62,150.26 90.85,150.72 C 93.38,151.38 93.94,153.71 94.6,156.29 C 95.11,158.37 97.04,158.62 96.24,156.84 Z" fill="#9E4221"/>
<path d="M 101.72,157.35 C 102.89,155.73 102.59,152.04 103.61,150.92 C 104.93,149.35 106.91,149.45 108.73,148.49 C 110.71,147.47 112.23,146.61 113.05,145.8 C 113.92,144.94 114.79,145.09 114.23,146.61 C 113.36,148.94 110.93,149.91 108.95,150.47 C 106.11,151.38 105.75,153.1 104.89,155.73 C 104.22,157.91 100.67,158.72 101.72,157.35 Z" fill="#9E4221"/>
<path d="M 75.22,159.79 C 77.65,160.19 79.12,159.18 79.43,158.16 C 79.84,156.74 77.46,157.05 76.04,157.05 C 74.11,157.05 73.24,157.66 73.14,158.32 C 72.99,158.98 73.45,159.53 75.22,159.79 Z" fill="#C9663A"/>
<path d="M 93.95,50.23 C 91.57,50.23 91.01,56.79 92.79,61.75 C 94.01,65.39 94.98,67.52 95.49,67.01 C 96.26,66.25 95.85,60.24 95.39,56.6 C 94.93,53.62 95.08,50.23 93.95,50.23 Z" fill="#C25319"/>
<path d="M 105.75,50.38 C 103.72,50.08 102.91,57.28 103.11,61.73 C 103.21,64.9 103.31,67.43 104.23,67.12 C 105.5,66.66 107.33,59.16 107.23,56.73 C 107.13,54.6 106.72,50.54 105.75,50.38 Z" fill="#C25319"/>
</svg>